<?xml version="1.0" standalone="no"?>
<!DOCTYPE svg PUBLIC "-//W3C//DTD SVG 20010904//EN"
 "http://www.w3.org/TR/2001/REC-SVG-20010904/DTD/svg10.dtd">
<svg version="1.0" xmlns="http://www.w3.org/2000/svg"
 width="512.000000pt" height="512.000000pt" viewBox="0 0 512.000000 512.000000"
 preserveAspectRatio="xMidYMid meet">
<metadata>
Created by potrace 1.16, written by Peter Selinger 2001-2019
</metadata>
<g transform="translate(0.000000,512.000000) scale(0.100000,-0.100000)"
fill="#000000" stroke="none">
<path d="M115 3895 c-23 -22 -25 -32 -25 -107 0 -101 12 -123 76 -139 84 -21
132 -101 104 -169 -17 -41 -63 -78 -105 -86 -65 -12 -75 -38 -75 -193 0 -159
5 -171 79 -196 83 -27 122 -84 106 -155 -8 -38 -65 -87 -110 -96 -65 -12 -75
-37 -75 -194 0 -156 10 -182 75 -194 42 -8 88 -45 105 -86 28 -68 -20 -148
-104 -169 -70 -17 -76 -33 -76 -192 0 -159 8 -179 84 -198 45 -11 88 -50 101
-92 20 -63 -32 -138 -109 -158 -64 -16 -76 -38 -76 -139 0 -75 2 -85 25 -107
l24 -25 2421 0 2421 0 24 25 c23 22 25 32 25 110 0 78 -2 88 -25 110 -13 14
-34 25 -47 25 -48 0 -114 58 -118 105 -8 77 28 127 104 146 78 19 86 38 86
201 0 134 -1 140 -25 163 -13 14 -34 25 -47 25 -30 0 -83 33 -102 62 -15 24
-19 45 -17 92 1 40 59 92 111 101 70 12 80 35 80 194 0 161 -5 172 -83 195
-59 17 -93 47 -106 94 -21 71 32 146 110 158 70 11 79 34 79 194 0 160 -9 183
-80 194 -103 16 -149 138 -78 213 12 13 46 31 75 39 72 21 83 40 83 142 0 75
-2 85 -25 107 l-24 25 -2421 0 -2421 0 -24 -25z m1418 -16 c35 -16 47 -50 47
-133 0 -89 -22 -126 -72 -126 -57 0 -68 21 -68 130 0 100 6 117 50 133 8 3 16
6 17 6 1 1 13 -4 26 -10z m26 -535 c19 -24 21 -40 21 -166 0 -134 -1 -140 -25
-163 -30 -30 -54 -31 -89 -4 l-26 20 0 151 c0 170 6 188 66 188 23 0 38 -7 53
-26z m-4 -619 c24 -23 25 -29 25 -165 0 -136 -1 -142 -25 -165 -29 -30 -68
-32 -95 -5 -18 18 -20 33 -20 170 0 137 2 152 20 170 27 27 66 25 95 -5z m0
-620 c24 -23 25 -29 25 -163 0 -126 -2 -142 -21 -166 -24 -31 -72 -35 -101 -9
-16 14 -18 34 -18 169 l0 153 26 20 c35 27 59 26 89 -4z m5 -633 c16 -19 20
-40 20 -98 0 -83 -12 -117 -46 -133 -26 -11 -49 -6 -76 17 -15 12 -18 32 -18
112 0 80 3 100 18 112 37 33 72 29 102 -10z"/>
</g>
</svg>
